<?xml version="1.0" encoding="utf-8"?>
<!-- Generator: Adobe Illustrator 17.0.2, SVG Export Plug-In . SVG Version: 6.00 Build 0)  -->
<!DOCTYPE svg PUBLIC "-//W3C//DTD SVG 1.1//EN" "http://www.w3.org/Graphics/SVG/1.1/DTD/svg11.dtd">
<svg version="1.1" xmlns="http://www.w3.org/2000/svg" xmlns:xlink="http://www.w3.org/1999/xlink" x="0px" y="0px"
	 width="655.284px" height="172.399px" viewBox="0 0 655.284 172.399" enable-background="new 0 0 655.284 172.399"
	 xml:space="preserve">
<g id="Layer_1">
	<g>
		<path fill="#FFFFFF" d="M108.116,107.393c-5.869,3.062-12.312,4.338-18.948,4.338c-14.099,0-24.37-9.25-24.37-23.732
			s10.271-23.732,24.37-23.732c7.146,0,13.462,1.595,17.991,5.805l-7.018,7.656c-2.68-2.807-5.934-4.274-10.974-4.274
			c-8.484,0-14.035,6.125-14.035,14.546c0,8.421,5.551,14.545,14.035,14.545c4.339,0,7.528-1.212,9.379-2.233v-7.336h-8.103v-9.187
			h17.672V107.393z"/>
		<path fill="#FFFFFF" d="M156.923,93.167c0,10.654-6.508,18.565-19.012,18.565c-12.568,0-19.075-7.911-19.075-18.565V65.415h9.952
			v27.369c0,5.55,3.828,9.761,9.123,9.761c5.231,0,9.059-4.21,9.059-9.761V65.415h9.953V93.167z"/>
		<path fill="#FFFFFF" d="M168.409,65.415h9.952v45.168h-9.952V65.415z"/>
		<path fill="#FFFFFF" d="M189.845,65.415h14.928c14.546,0,26.731,6.188,26.731,22.712c0,14.609-11.93,22.457-25.392,22.457h-16.268
			V65.415z M199.797,101.397h5.167c9.251,0,16.205-3.509,16.205-13.78c0-8.868-7.082-13.015-15.503-13.015h-5.869V101.397z"/>
		<path fill="#FFFFFF" d="M240.884,65.415h30.686v9.187h-20.733v8.421h19.586v9.187h-19.586v9.187h21.882v9.187h-31.834V65.415z"/>
		<path fill="#FFFFFF" d="M314.699,74.219h-12.888v-8.804h35.727v8.804h-12.887v36.364h-9.952V74.219z"/>
		<path fill="#FFFFFF" d="M366.183,64.267c14.1,0,24.371,9.25,24.371,23.732s-10.271,23.732-24.371,23.732
			c-14.099,0-24.37-9.25-24.37-23.732S352.085,64.267,366.183,64.267z M366.183,102.545c8.485,0,14.036-6.125,14.036-14.545
			c0-8.421-5.551-14.546-14.036-14.546c-8.484,0-14.035,6.125-14.035,14.546C352.148,96.42,357.699,102.545,366.183,102.545z"/>
		<path fill="#FFFFFF" d="M452.122,77.153c-1.979-2.36-4.849-3.7-8.549-3.7c-7.528,0-13.079,6.125-13.079,14.546
			c0,8.421,5.551,14.545,12.76,14.545c4.02,0,7.272-1.786,9.314-4.849l8.293,6.188c-3.764,5.359-10.144,7.847-16.332,7.847
			c-14.099,0-24.37-9.25-24.37-23.732s10.271-23.732,24.37-23.732c5.04,0,11.42,1.722,15.248,6.635L452.122,77.153z"/>
		<path fill="#FFFFFF" d="M484.276,65.415h8.229l19.649,45.168h-11.228l-3.892-9.569h-17.545l-3.764,9.569h-10.973L484.276,65.415z
			 M488.104,78.557l-5.486,14.035h11.036L488.104,78.557z"/>
		<path fill="#FFFFFF" d="M519.176,65.415h17.48c9.25,0,17.033,3.19,17.033,13.716c0,6.316-3.381,11.229-9.761,12.377l11.483,19.075
			h-11.93l-9.442-18.055h-4.912v18.055h-9.952V65.415z M529.128,84.108h5.869c3.637,0,8.357-0.128,8.357-5.04
			c0-4.53-4.083-5.231-7.72-5.231h-6.507V84.108z"/>
		<path fill="#FFFFFF" d="M563.389,65.415h30.686v9.187h-20.733v8.421h19.586v9.187h-19.586v9.187h21.882v9.187h-31.834V65.415z"/>
	</g>
	<g>
		<defs>
			<rect id="SVGID_11_" x="0" y="0" width="661.235" height="172.399"/>
		</defs>
		<clipPath id="SVGID_2_">
			<use xlink:href="#SVGID_11_"  overflow="visible"/>
		</clipPath>
		
			<rect x="12.139" y="9.848" clip-path="url(#SVGID_2_)" fill="none" stroke="#FFFFFF" stroke-width="19.6997" stroke-miterlimit="10" width="633.48" height="152.701"/>
	</g>
</g>
<g id="Layer_3">
</g>
<g id="TYPE">
</g>
<g id="guide">
</g>
</svg>
